<svg width="78" height="78" viewBox="0 0 78 78" fill="none" xmlns="http://www.w3.org/2000/svg">
<path d="M39 19.1833C35.0806 19.1833 31.2493 20.3455 27.9904 22.523C24.7316 24.7005 22.1917 27.7954 20.6918 31.4164C19.1919 35.0374 18.7995 39.0219 19.5641 42.866C20.3287 46.71 22.2161 50.241 24.9875 53.0124C27.7589 55.7838 31.2899 57.6712 35.1339 58.4358C38.978 59.2005 42.9625 58.808 46.5835 57.3081C50.2045 55.8083 53.2995 53.2683 55.4769 50.0095C57.6544 46.7506 58.8167 42.9193 58.8167 38.9999C58.823 36.3958 58.3148 33.816 57.3212 31.4089C56.3276 29.0017 54.8681 26.8146 53.0267 24.9732C51.1853 23.1318 48.9982 21.6724 46.591 20.6787C44.1839 19.6851 41.6041 19.1769 39 19.1833ZM39 51.9049C36.4476 51.9049 33.9526 51.1481 31.8304 49.73C29.7081 48.312 28.0541 46.2965 27.0773 43.9385C26.1006 41.5804 25.845 38.9856 26.343 36.4823C26.8409 33.979 28.07 31.6795 29.8748 29.8747C31.6796 28.0699 33.979 26.8408 36.4823 26.3429C38.9857 25.845 41.5804 26.1005 43.9385 27.0773C46.2966 28.054 48.3121 29.7081 49.7301 31.8303C51.1481 33.9525 51.905 36.4476 51.905 38.9999C51.905 42.4226 50.5454 45.705 48.1252 48.1251C45.705 50.5453 42.4226 51.9049 39 51.9049ZM64.2783 18.3616C64.2783 19.3175 63.9949 20.252 63.4638 21.0469C62.9327 21.8417 62.1778 22.4612 61.2946 22.827C60.4114 23.1928 59.4396 23.2886 58.502 23.1021C57.5645 22.9156 56.7033 22.4552 56.0273 21.7793C55.3513 21.1033 54.891 20.2421 54.7045 19.3045C54.518 18.367 54.6137 17.3951 54.9796 16.512C55.3454 15.6288 55.9649 14.8739 56.7597 14.3428C57.5546 13.8117 58.489 13.5283 59.445 13.5283C60.7269 13.5283 61.9562 14.0375 62.8627 14.9439C63.7691 15.8503 64.2783 17.0797 64.2783 18.3616ZM77.3767 23.1949C77.5225 17.1853 75.2805 11.3629 71.1416 7.00326C68.9946 4.92777 66.4593 3.29597 63.681 2.20122C60.9027 1.10648 57.9358 0.570265 54.95 0.623262C48.6667 0.333262 29.3333 0.333262 23.05 0.623262C17.0431 0.493193 11.2265 2.73302 6.85832 6.85826C2.71951 11.2179 0.477444 17.0403 0.623323 23.0499C0.333323 29.3333 0.333323 48.6666 0.623323 54.9499C0.477444 60.9595 2.71951 66.7819 6.85832 71.1416C11.2265 75.2668 17.0431 77.5067 23.05 77.3766C29.43 77.7633 48.57 77.7633 54.95 77.3766C60.9596 77.5225 66.782 75.2804 71.1416 71.1416C75.2805 66.7819 77.5225 60.9595 77.3767 54.9499C77.6666 48.6666 77.6666 29.3333 77.3767 23.0499V23.1949ZM69.16 61.8616C68.5037 63.524 67.513 65.0338 66.2493 66.2976C64.9855 67.5613 63.4757 68.552 61.8133 69.2083C54.31 70.7252 46.6394 71.2453 39 70.7549C31.3767 71.241 23.7225 70.721 16.235 69.2083C14.5726 68.552 13.0628 67.5613 11.799 66.2976C10.5353 65.0338 9.54456 63.524 8.88832 61.8616C6.85832 56.7383 7.29332 44.6549 7.29332 39.0483C7.29332 33.4416 6.85832 21.3099 8.88832 16.2349C9.52605 14.5562 10.5097 13.0302 11.7753 11.7562C13.041 10.4823 14.5604 9.48865 16.235 8.83993C23.7225 7.3272 31.3767 6.80717 39 7.29326C46.6394 6.8029 54.31 7.32295 61.8133 8.83993C63.4757 9.49617 64.9855 10.4869 66.2493 11.7506C67.513 13.0144 68.5037 14.5242 69.16 16.1866C71.19 21.3099 70.7066 33.3933 70.7066 38.9999C70.7066 44.6066 71.19 56.7383 69.16 61.8133V61.8616Z" fill="black" fill-opacity="0.75"/>
</svg>
